%TF.GenerationSoftware,KiCad,Pcbnew,9.0.2*%
%TF.CreationDate,2025-05-22T21:13:13+05:30*%
%TF.ProjectId,Indira_Setu,496e6469-7261-45f5-9365-74752e6b6963,rev?*%
%TF.SameCoordinates,Original*%
%TF.FileFunction,Soldermask,Bot*%
%TF.FilePolarity,Negative*%
%FSLAX46Y46*%
G04 Gerber Fmt 4.6, Leading zero omitted, Abs format (unit mm)*
G04 Created by KiCad (PCBNEW 9.0.2) date 2025-05-22 21:13:13*
%MOMM*%
%LPD*%
G01*
G04 APERTURE LIST*
%ADD10O,1.700000X1.700000*%
%ADD11R,1.700000X1.700000*%
%ADD12O,1.800000X1.800000*%
%ADD13O,1.500000X1.500000*%
%ADD14C,4.000000*%
%ADD15C,1.700000*%
G04 APERTURE END LIST*
D10*
%TO.C,U1*%
X210040000Y-96400000D03*
D11*
X207500000Y-96400000D03*
D10*
X204960000Y-96400000D03*
X216390000Y-48370000D03*
X216390000Y-50910000D03*
D11*
X216390000Y-53450000D03*
D10*
X216390000Y-55990000D03*
X216390000Y-58530000D03*
X216390000Y-61070000D03*
X216390000Y-63610000D03*
D11*
X216390000Y-66150000D03*
D10*
X216390000Y-68690000D03*
X216390000Y-71230000D03*
X216390000Y-73770000D03*
X216390000Y-76310000D03*
D11*
X216390000Y-78850000D03*
D10*
X216390000Y-81390000D03*
X216390000Y-83930000D03*
X216390000Y-86470000D03*
X216390000Y-89010000D03*
D11*
X216390000Y-91550000D03*
D10*
X216390000Y-94090000D03*
X216390000Y-96630000D03*
X198610000Y-96630000D03*
X198610000Y-94090000D03*
D11*
X198610000Y-91550000D03*
D10*
X198610000Y-89010000D03*
X198610000Y-86470000D03*
X198610000Y-83930000D03*
X198610000Y-81390000D03*
D11*
X198610000Y-78850000D03*
D10*
X198610000Y-76310000D03*
X198610000Y-73770000D03*
X198610000Y-71230000D03*
X198610000Y-68690000D03*
D11*
X198610000Y-66150000D03*
D10*
X198610000Y-63610000D03*
X198610000Y-61070000D03*
X198610000Y-58530000D03*
X198610000Y-55990000D03*
D11*
X198610000Y-53450000D03*
D10*
X198610000Y-50910000D03*
X198610000Y-48370000D03*
D12*
X210225000Y-48500000D03*
D13*
X209925000Y-51530000D03*
X205075000Y-51530000D03*
D12*
X204775000Y-48500000D03*
%TD*%
D14*
%TO.C,CJMCU_FT1*%
X107548000Y-49548000D03*
X107548000Y-85870000D03*
X129392000Y-49548000D03*
X129392000Y-85870000D03*
D15*
X117200000Y-87648000D03*
X105770000Y-78758000D03*
X122280000Y-87648000D03*
X131170000Y-81298000D03*
X131170000Y-78758000D03*
X131170000Y-76218000D03*
X131170000Y-73678000D03*
X131170000Y-71138000D03*
X131170000Y-68598000D03*
X131170000Y-66058000D03*
X131170000Y-63518000D03*
X131170000Y-60978000D03*
X131170000Y-58438000D03*
X105770000Y-58438000D03*
X105770000Y-60978000D03*
X105770000Y-63518000D03*
X105770000Y-66058000D03*
X105770000Y-68598000D03*
X105770000Y-71138000D03*
X105770000Y-73678000D03*
X105770000Y-76218000D03*
X105770000Y-81298000D03*
X114660000Y-87648000D03*
X119740000Y-87648000D03*
%TD*%
M02*
