%TF.GenerationSoftware,KiCad,Pcbnew,9.0.2*%
%TF.CreationDate,2025-05-23T00:22:38+05:30*%
%TF.ProjectId,Indira_Setu,496e6469-7261-45f5-9365-74752e6b6963,rev?*%
%TF.SameCoordinates,Original*%
%TF.FileFunction,Copper,L2,Bot*%
%TF.FilePolarity,Positive*%
%FSLAX46Y46*%
G04 Gerber Fmt 4.6, Leading zero omitted, Abs format (unit mm)*
G04 Created by KiCad (PCBNEW 9.0.2) date 2025-05-23 00:22:38*
%MOMM*%
%LPD*%
G01*
G04 APERTURE LIST*
%TA.AperFunction,ComponentPad*%
%ADD10C,4.000000*%
%TD*%
%TA.AperFunction,ComponentPad*%
%ADD11R,1.500000X1.500000*%
%TD*%
%TA.AperFunction,ComponentPad*%
%ADD12C,1.500000*%
%TD*%
%TA.AperFunction,ComponentPad*%
%ADD13O,1.700000X1.700000*%
%TD*%
%TA.AperFunction,ComponentPad*%
%ADD14R,1.700000X1.700000*%
%TD*%
%TA.AperFunction,ComponentPad*%
%ADD15C,1.700000*%
%TD*%
%TA.AperFunction,Conductor*%
%ADD16C,0.200000*%
%TD*%
G04 APERTURE END LIST*
D10*
%TO.P,U2,*%
%TO.N,*%
X82550000Y-97042500D03*
X48450000Y-97042500D03*
X82550000Y-158242500D03*
X48450000Y-158242500D03*
D11*
%TO.P,U2,1,VCC*%
%TO.N,Net-(U1-3V3)*%
X75660000Y-95542500D03*
D12*
%TO.P,U2,2,GND*%
%TO.N,Net-(U2-GND)*%
X73120000Y-95542500D03*
%TO.P,U2,3,~{CS}*%
%TO.N,Net-(U1-GPIO18)*%
X70580000Y-95542500D03*
%TO.P,U2,4,RESET*%
%TO.N,Net-(U1-GPIO17)*%
X68040000Y-95542500D03*
%TO.P,U2,5,D/~{C}*%
%TO.N,Net-(U1-GPIO16)*%
X65500000Y-95542500D03*
%TO.P,U2,6,MOSI*%
%TO.N,Net-(U1-GPIO11)*%
X62960000Y-95542500D03*
%TO.P,U2,7,SCK*%
%TO.N,Net-(U1-GPIO10)*%
X60420000Y-95542500D03*
%TO.P,U2,8,LED*%
%TO.N,Net-(U1-3V3)*%
X57880000Y-95542500D03*
%TO.P,U2,9,MISO*%
%TO.N,Net-(U1-GPIO15)*%
X55340000Y-95542500D03*
%TO.P,U2,10,SD_CS*%
%TO.N,unconnected-(U2-SD_CS-Pad10)*%
X70580000Y-159062500D03*
%TO.P,U2,11,SD_MOSI*%
%TO.N,unconnected-(U2-SD_MOSI-Pad11)*%
X68040000Y-159062500D03*
%TO.P,U2,12,SD_MISO*%
%TO.N,unconnected-(U2-SD_MISO-Pad12)*%
X65500000Y-159062500D03*
%TO.P,U2,13,SD_SCK*%
%TO.N,unconnected-(U2-SD_SCK-Pad13)*%
X62960000Y-159062500D03*
%TO.P,U2,14,FLASH_CD*%
%TO.N,unconnected-(U2-FLASH_CD-Pad14)*%
X60420000Y-159062500D03*
%TD*%
D13*
%TO.P,U1,1,GPIO0*%
%TO.N,unconnected-(U1-GPIO0-Pad1)*%
X157610000Y-32370000D03*
%TO.P,U1,2,GPIO1*%
%TO.N,unconnected-(U1-GPIO1-Pad2)*%
X157610000Y-34910000D03*
D14*
%TO.P,U1,3,GND*%
%TO.N,unconnected-(U1-GND-Pad3)*%
X157610000Y-37450000D03*
D13*
%TO.P,U1,4,GPIO2*%
%TO.N,Net-(U1-GPIO2)*%
X157610000Y-39990000D03*
%TO.P,U1,5,GPIO3*%
%TO.N,Net-(U1-GPIO3)*%
X157610000Y-42530000D03*
%TO.P,U1,6,GPIO4*%
%TO.N,Net-(U1-GPIO4)*%
X157610000Y-45070000D03*
%TO.P,U1,7,GPIO5*%
%TO.N,Net-(U1-GPIO5)*%
X157610000Y-47610000D03*
D14*
%TO.P,U1,8,GND*%
%TO.N,unconnected-(U1-GND-Pad8)*%
X157610000Y-50150000D03*
D13*
%TO.P,U1,9,GPIO6*%
%TO.N,Net-(U1-GPIO6)*%
X157610000Y-52690000D03*
%TO.P,U1,10,GPIO7*%
%TO.N,Net-(U1-GPIO7)*%
X157610000Y-55230000D03*
%TO.P,U1,11,GPIO8*%
%TO.N,Net-(U1-GPIO8)*%
X157610000Y-57770000D03*
%TO.P,U1,12,GPIO9*%
%TO.N,unconnected-(U1-GPIO9-Pad12)*%
X157610000Y-60310000D03*
D14*
%TO.P,U1,13,GND*%
%TO.N,Net-(CJMCU_FT1-GND-PadGND1)*%
X157610000Y-62850000D03*
D13*
%TO.P,U1,14,GPIO10*%
%TO.N,Net-(U1-GPIO10)*%
X157610000Y-65390000D03*
%TO.P,U1,15,GPIO11*%
%TO.N,Net-(U1-GPIO11)*%
X157610000Y-67930000D03*
%TO.P,U1,16,GPIO12*%
%TO.N,unconnected-(U1-GPIO12-Pad16)*%
X157610000Y-70470000D03*
%TO.P,U1,17,GPIO13*%
%TO.N,unconnected-(U1-GPIO13-Pad17)*%
X157610000Y-73010000D03*
D14*
%TO.P,U1,18,GND*%
%TO.N,unconnected-(U1-GND-Pad18)*%
X157610000Y-75550000D03*
D13*
%TO.P,U1,19,GPIO14*%
%TO.N,unconnected-(U1-GPIO14-Pad19)*%
X157610000Y-78090000D03*
%TO.P,U1,20,GPIO15*%
%TO.N,Net-(U1-GPIO15)*%
X157610000Y-80630000D03*
%TO.P,U1,21,GPIO16*%
%TO.N,Net-(U1-GPIO16)*%
X175390000Y-80630000D03*
%TO.P,U1,22,GPIO17*%
%TO.N,Net-(U1-GPIO17)*%
X175390000Y-78090000D03*
D14*
%TO.P,U1,23,GND*%
%TO.N,unconnected-(U1-GND-Pad23)*%
X175390000Y-75550000D03*
D13*
%TO.P,U1,24,GPIO18*%
%TO.N,Net-(U1-GPIO18)*%
X175390000Y-73010000D03*
%TO.P,U1,25,GPIO19*%
%TO.N,unconnected-(U1-GPIO19-Pad25)*%
X175390000Y-70470000D03*
%TO.P,U1,26,GPIO20*%
%TO.N,unconnected-(U1-GPIO20-Pad26)*%
X175390000Y-67930000D03*
%TO.P,U1,27,GPIO21*%
%TO.N,unconnected-(U1-GPIO21-Pad27)*%
X175390000Y-65390000D03*
D14*
%TO.P,U1,28,GND*%
%TO.N,unconnected-(U1-GND-Pad28)*%
X175390000Y-62850000D03*
D13*
%TO.P,U1,29,GPIO22*%
%TO.N,unconnected-(U1-GPIO22-Pad29)*%
X175390000Y-60310000D03*
%TO.P,U1,30,RUN*%
%TO.N,unconnected-(U1-RUN-Pad30)*%
X175390000Y-57770000D03*
%TO.P,U1,31,GPIO26_ADC0*%
%TO.N,unconnected-(U1-GPIO26_ADC0-Pad31)*%
X175390000Y-55230000D03*
%TO.P,U1,32,GPIO27_ADC1*%
%TO.N,unconnected-(U1-GPIO27_ADC1-Pad32)*%
X175390000Y-52690000D03*
D14*
%TO.P,U1,33,AGND*%
%TO.N,unconnected-(U1-AGND-Pad33)*%
X175390000Y-50150000D03*
D13*
%TO.P,U1,34,GPIO28_ADC2*%
%TO.N,unconnected-(U1-GPIO28_ADC2-Pad34)*%
X175390000Y-47610000D03*
%TO.P,U1,35,ADC_VREF*%
%TO.N,unconnected-(U1-ADC_VREF-Pad35)*%
X175390000Y-45070000D03*
%TO.P,U1,36,3V3*%
%TO.N,Net-(U1-3V3)*%
X175390000Y-42530000D03*
%TO.P,U1,37,3V3_EN*%
%TO.N,unconnected-(U1-3V3_EN-Pad37)*%
X175390000Y-39990000D03*
D14*
%TO.P,U1,38,GND*%
%TO.N,Net-(U2-GND)*%
X175390000Y-37450000D03*
D13*
%TO.P,U1,39,VSYS*%
%TO.N,unconnected-(U1-VSYS-Pad39)*%
X175390000Y-34910000D03*
%TO.P,U1,40,VBUS*%
%TO.N,unconnected-(U1-VBUS-Pad40)*%
X175390000Y-32370000D03*
%TO.P,U1,41,SWCLK*%
%TO.N,unconnected-(U1-SWCLK-Pad41)*%
X163960000Y-80400000D03*
D14*
%TO.P,U1,42,GND*%
%TO.N,unconnected-(U1-GND-Pad42)*%
X166500000Y-80400000D03*
D13*
%TO.P,U1,43,SWDIO*%
%TO.N,unconnected-(U1-SWDIO-Pad43)*%
X169040000Y-80400000D03*
%TD*%
D15*
%TO.P,CJMCU_FT1,+3.3V,+3.3V*%
%TO.N,Net-(U1-3V3)*%
X95648000Y-68800000D03*
%TO.P,CJMCU_FT1,+5V1,+5V*%
%TO.N,unconnected-(CJMCU_FT1-+5V-Pad+5V1)*%
X86758000Y-80230000D03*
%TO.P,CJMCU_FT1,+5V2,+5V*%
%TO.N,unconnected-(CJMCU_FT1-+5V-Pad+5V2)*%
X95648000Y-63720000D03*
%TO.P,CJMCU_FT1,AC0,AC0*%
%TO.N,Net-(U1-GPIO3)*%
X89298000Y-54830000D03*
%TO.P,CJMCU_FT1,AC1,AC1*%
%TO.N,Net-(U1-GPIO4)*%
X86758000Y-54830000D03*
%TO.P,CJMCU_FT1,AC2,AC2*%
%TO.N,Net-(U1-GPIO6)*%
X84218000Y-54830000D03*
%TO.P,CJMCU_FT1,AC3,AC3*%
%TO.N,Net-(U1-GPIO7)*%
X81678000Y-54830000D03*
%TO.P,CJMCU_FT1,AC4,AC4*%
%TO.N,unconnected-(CJMCU_FT1-PadAC4)*%
X79138000Y-54830000D03*
%TO.P,CJMCU_FT1,AC5,AC5*%
%TO.N,Net-(U1-GPIO2)*%
X76598000Y-54830000D03*
%TO.P,CJMCU_FT1,AC6,AC6*%
%TO.N,Net-(U1-GPIO5)*%
X74058000Y-54830000D03*
%TO.P,CJMCU_FT1,AC7,AC7*%
%TO.N,unconnected-(CJMCU_FT1-PadAC7)*%
X71518000Y-54830000D03*
%TO.P,CJMCU_FT1,AC8,AC8*%
%TO.N,unconnected-(CJMCU_FT1-PadAC8)*%
X68978000Y-54830000D03*
%TO.P,CJMCU_FT1,AC9,AC9*%
%TO.N,unconnected-(CJMCU_FT1-PadAC9)*%
X66438000Y-54830000D03*
%TO.P,CJMCU_FT1,AD0,AD0*%
%TO.N,Net-(U1-GPIO8)*%
X66438000Y-80230000D03*
%TO.P,CJMCU_FT1,AD1,AD1*%
%TO.N,unconnected-(CJMCU_FT1-PadAD1)*%
X68978000Y-80230000D03*
%TO.P,CJMCU_FT1,AD2,AD2*%
%TO.N,unconnected-(CJMCU_FT1-PadAD2)*%
X71518000Y-80230000D03*
%TO.P,CJMCU_FT1,AD3,AD3*%
%TO.N,unconnected-(CJMCU_FT1-PadAD3)*%
X74058000Y-80230000D03*
%TO.P,CJMCU_FT1,AD4,AD4*%
%TO.N,unconnected-(CJMCU_FT1-PadAD4)*%
X76598000Y-80230000D03*
%TO.P,CJMCU_FT1,AD5,AD5*%
%TO.N,unconnected-(CJMCU_FT1-PadAD5)*%
X79138000Y-80230000D03*
%TO.P,CJMCU_FT1,AD6,AD6*%
%TO.N,unconnected-(CJMCU_FT1-PadAD6)*%
X81678000Y-80230000D03*
%TO.P,CJMCU_FT1,AD7,AD7*%
%TO.N,unconnected-(CJMCU_FT1-PadAD7)*%
X84218000Y-80230000D03*
%TO.P,CJMCU_FT1,GND1,GND*%
%TO.N,Net-(CJMCU_FT1-GND-PadGND1)*%
X89298000Y-80230000D03*
%TO.P,CJMCU_FT1,GND2,GND*%
%TO.N,unconnected-(CJMCU_FT1-GND-PadGND2)*%
X95648000Y-71340000D03*
%TO.P,CJMCU_FT1,Vcore,Vcore*%
%TO.N,unconnected-(CJMCU_FT1-PadVcore)*%
X95648000Y-66260000D03*
%TD*%
D16*
%TO.N,Net-(U1-GPIO17)*%
X181750000Y-81750000D02*
X169008500Y-94491500D01*
X69091000Y-94491500D02*
X68040000Y-95542500D01*
X181750000Y-79250000D02*
X181750000Y-81750000D01*
X180590000Y-78090000D02*
X181750000Y-79250000D01*
X169008500Y-94491500D02*
X69091000Y-94491500D01*
X175390000Y-78090000D02*
X180590000Y-78090000D01*
%TO.N,Net-(U1-GPIO18)*%
X186510000Y-73010000D02*
X175390000Y-73010000D01*
X188250000Y-74750000D02*
X186510000Y-73010000D01*
X168156500Y-99343500D02*
X188250000Y-79250000D01*
X188250000Y-79250000D02*
X188250000Y-74750000D01*
X74381000Y-99343500D02*
X168156500Y-99343500D01*
X70580000Y-95542500D02*
X74381000Y-99343500D01*
%TO.N,Net-(U1-3V3)*%
X72200000Y-68800000D02*
X57880000Y-83120000D01*
X95648000Y-68800000D02*
X72200000Y-68800000D01*
X57880000Y-83120000D02*
X57880000Y-95542500D01*
%TO.N,Net-(U1-GPIO11)*%
X138540000Y-87000000D02*
X157610000Y-67930000D01*
X62960000Y-91540000D02*
X67500000Y-87000000D01*
X67500000Y-87000000D02*
X138540000Y-87000000D01*
X62960000Y-95542500D02*
X62960000Y-91540000D01*
%TO.N,Net-(U1-GPIO5)*%
X106000000Y-62000000D02*
X120000000Y-48000000D01*
X120000000Y-48000000D02*
X157000000Y-48000000D01*
X74058000Y-54830000D02*
X81228000Y-62000000D01*
X81228000Y-62000000D02*
X106000000Y-62000000D01*
%TO.N,Net-(U1-GPIO4)*%
X86758000Y-54830000D02*
X96518000Y-45070000D01*
X96518000Y-45070000D02*
X157610000Y-45070000D01*
%TO.N,Net-(CJMCU_FT1-GND-PadGND1)*%
X89298000Y-80230000D02*
X90148000Y-81080000D01*
X90148000Y-81080000D02*
X139380000Y-81080000D01*
X139380000Y-81080000D02*
X157610000Y-62850000D01*
%TO.N,unconnected-(U1-GND-Pad3)*%
X157560000Y-37500000D02*
X157610000Y-37450000D01*
%TO.N,Net-(U1-GPIO16)*%
X164028500Y-91991500D02*
X69051000Y-91991500D01*
X69051000Y-91991500D02*
X65500000Y-95542500D01*
X175390000Y-80630000D02*
X164028500Y-91991500D01*
%TO.N,Net-(U1-GPIO10)*%
X66500000Y-85500000D02*
X137500000Y-85500000D01*
X60420000Y-91580000D02*
X66500000Y-85500000D01*
X137500000Y-85500000D02*
X157610000Y-65390000D01*
X60420000Y-95542500D02*
X60420000Y-91580000D01*
%TD*%
M02*
