%TF.GenerationSoftware,KiCad,Pcbnew,9.0.2*%
%TF.CreationDate,2025-05-22T21:13:13+05:30*%
%TF.ProjectId,Indira_Setu,496e6469-7261-45f5-9365-74752e6b6963,rev?*%
%TF.SameCoordinates,Original*%
%TF.FileFunction,Copper,L2,Bot*%
%TF.FilePolarity,Positive*%
%FSLAX46Y46*%
G04 Gerber Fmt 4.6, Leading zero omitted, Abs format (unit mm)*
G04 Created by KiCad (PCBNEW 9.0.2) date 2025-05-22 21:13:13*
%MOMM*%
%LPD*%
G01*
G04 APERTURE LIST*
%TA.AperFunction,ComponentPad*%
%ADD10O,1.700000X1.700000*%
%TD*%
%TA.AperFunction,ComponentPad*%
%ADD11R,1.700000X1.700000*%
%TD*%
%TA.AperFunction,ComponentPad*%
%ADD12C,1.700000*%
%TD*%
%TA.AperFunction,ViaPad*%
%ADD13C,0.600000*%
%TD*%
%TA.AperFunction,Conductor*%
%ADD14C,0.200000*%
%TD*%
G04 APERTURE END LIST*
D10*
%TO.P,U1,43,SWDIO*%
%TO.N,unconnected-(U1-SWDIO-Pad43)*%
X210040000Y-96400000D03*
D11*
%TO.P,U1,42,GND*%
%TO.N,unconnected-(U1-GND-Pad42)*%
X207500000Y-96400000D03*
D10*
%TO.P,U1,41,SWCLK*%
%TO.N,unconnected-(U1-SWCLK-Pad41)*%
X204960000Y-96400000D03*
%TO.P,U1,40,VBUS*%
%TO.N,unconnected-(U1-VBUS-Pad40)*%
X216390000Y-48370000D03*
%TO.P,U1,39,VSYS*%
%TO.N,unconnected-(U1-VSYS-Pad39)*%
X216390000Y-50910000D03*
D11*
%TO.P,U1,38,GND*%
%TO.N,unconnected-(U1-GND-Pad38)*%
X216390000Y-53450000D03*
D10*
%TO.P,U1,37,3V3_EN*%
%TO.N,unconnected-(U1-3V3_EN-Pad37)*%
X216390000Y-55990000D03*
%TO.P,U1,36,3V3*%
%TO.N,unconnected-(U1-3V3-Pad36)*%
X216390000Y-58530000D03*
%TO.P,U1,35,ADC_VREF*%
%TO.N,unconnected-(U1-ADC_VREF-Pad35)*%
X216390000Y-61070000D03*
%TO.P,U1,34,GPIO28_ADC2*%
%TO.N,unconnected-(U1-GPIO28_ADC2-Pad34)*%
X216390000Y-63610000D03*
D11*
%TO.P,U1,33,AGND*%
%TO.N,unconnected-(U1-AGND-Pad33)*%
X216390000Y-66150000D03*
D10*
%TO.P,U1,32,GPIO27_ADC1*%
%TO.N,unconnected-(U1-GPIO27_ADC1-Pad32)*%
X216390000Y-68690000D03*
%TO.P,U1,31,GPIO26_ADC0*%
%TO.N,unconnected-(U1-GPIO26_ADC0-Pad31)*%
X216390000Y-71230000D03*
%TO.P,U1,30,RUN*%
%TO.N,unconnected-(U1-RUN-Pad30)*%
X216390000Y-73770000D03*
%TO.P,U1,29,GPIO22*%
%TO.N,unconnected-(U1-GPIO22-Pad29)*%
X216390000Y-76310000D03*
D11*
%TO.P,U1,28,GND*%
%TO.N,unconnected-(U1-GND-Pad28)*%
X216390000Y-78850000D03*
D10*
%TO.P,U1,27,GPIO21*%
%TO.N,unconnected-(U1-GPIO21-Pad27)*%
X216390000Y-81390000D03*
%TO.P,U1,26,GPIO20*%
%TO.N,unconnected-(U1-GPIO20-Pad26)*%
X216390000Y-83930000D03*
%TO.P,U1,25,GPIO19*%
%TO.N,unconnected-(U1-GPIO19-Pad25)*%
X216390000Y-86470000D03*
%TO.P,U1,24,GPIO18*%
%TO.N,unconnected-(U1-GPIO18-Pad24)*%
X216390000Y-89010000D03*
D11*
%TO.P,U1,23,GND*%
%TO.N,unconnected-(U1-GND-Pad23)*%
X216390000Y-91550000D03*
D10*
%TO.P,U1,22,GPIO17*%
%TO.N,unconnected-(U1-GPIO17-Pad22)*%
X216390000Y-94090000D03*
%TO.P,U1,21,GPIO16*%
%TO.N,unconnected-(U1-GPIO16-Pad21)*%
X216390000Y-96630000D03*
%TO.P,U1,20,GPIO15*%
%TO.N,unconnected-(U1-GPIO15-Pad20)*%
X198610000Y-96630000D03*
%TO.P,U1,19,GPIO14*%
%TO.N,unconnected-(U1-GPIO14-Pad19)*%
X198610000Y-94090000D03*
D11*
%TO.P,U1,18,GND*%
%TO.N,unconnected-(U1-GND-Pad18)*%
X198610000Y-91550000D03*
D10*
%TO.P,U1,17,GPIO13*%
%TO.N,unconnected-(U1-GPIO13-Pad17)*%
X198610000Y-89010000D03*
%TO.P,U1,16,GPIO12*%
%TO.N,unconnected-(U1-GPIO12-Pad16)*%
X198610000Y-86470000D03*
%TO.P,U1,15,GPIO11*%
%TO.N,unconnected-(U1-GPIO11-Pad15)*%
X198610000Y-83930000D03*
%TO.P,U1,14,GPIO10*%
%TO.N,unconnected-(U1-GPIO10-Pad14)*%
X198610000Y-81390000D03*
D11*
%TO.P,U1,13,GND*%
%TO.N,unconnected-(U1-GND-Pad13)*%
X198610000Y-78850000D03*
D10*
%TO.P,U1,12,GPIO9*%
%TO.N,unconnected-(U1-GPIO9-Pad12)*%
X198610000Y-76310000D03*
%TO.P,U1,11,GPIO8*%
%TO.N,Net-(U1-GPIO8)*%
X198610000Y-73770000D03*
%TO.P,U1,10,GPIO7*%
%TO.N,Net-(U1-GPIO7)*%
X198610000Y-71230000D03*
%TO.P,U1,9,GPIO6*%
%TO.N,Net-(U1-GPIO6)*%
X198610000Y-68690000D03*
D11*
%TO.P,U1,8,GND*%
%TO.N,Net-(CJMCU_FT1-GND-PadGND2)*%
X198610000Y-66150000D03*
D10*
%TO.P,U1,7,GPIO5*%
%TO.N,Net-(U1-GPIO5)*%
X198610000Y-63610000D03*
%TO.P,U1,6,GPIO4*%
%TO.N,Net-(U1-GPIO4)*%
X198610000Y-61070000D03*
%TO.P,U1,5,GPIO3*%
%TO.N,Net-(U1-GPIO3)*%
X198610000Y-58530000D03*
%TO.P,U1,4,GPIO2*%
%TO.N,Net-(U1-GPIO2)*%
X198610000Y-55990000D03*
D11*
%TO.P,U1,3,GND*%
%TO.N,Net-(CJMCU_FT1-GND-PadGND2)*%
X198610000Y-53450000D03*
D10*
%TO.P,U1,2,GPIO1*%
%TO.N,unconnected-(U1-GPIO1-Pad2)*%
X198610000Y-50910000D03*
%TO.P,U1,1,GPIO0*%
%TO.N,unconnected-(U1-GPIO0-Pad1)*%
X198610000Y-48370000D03*
%TD*%
D12*
%TO.P,CJMCU_FT1,+3.3V,+3.3V*%
%TO.N,unconnected-(CJMCU_FT1-Pad+3.3V)*%
X117200000Y-87648000D03*
%TO.P,CJMCU_FT1,+5V1,+5V*%
%TO.N,unconnected-(CJMCU_FT1-+5V-Pad+5V1)*%
X105770000Y-78758000D03*
%TO.P,CJMCU_FT1,+5V2,+5V*%
%TO.N,unconnected-(CJMCU_FT1-+5V-Pad+5V2)*%
X122280000Y-87648000D03*
%TO.P,CJMCU_FT1,AC0,AC0*%
%TO.N,Net-(U1-GPIO3)*%
X131170000Y-81298000D03*
%TO.P,CJMCU_FT1,AC1,AC1*%
%TO.N,Net-(U1-GPIO4)*%
X131170000Y-78758000D03*
%TO.P,CJMCU_FT1,AC2,AC2*%
%TO.N,Net-(U1-GPIO6)*%
X131170000Y-76218000D03*
%TO.P,CJMCU_FT1,AC3,AC3*%
%TO.N,Net-(U1-GPIO7)*%
X131170000Y-73678000D03*
%TO.P,CJMCU_FT1,AC4,AC4*%
%TO.N,unconnected-(CJMCU_FT1-PadAC4)*%
X131170000Y-71138000D03*
%TO.P,CJMCU_FT1,AC5,AC5*%
%TO.N,Net-(U1-GPIO2)*%
X131170000Y-68598000D03*
%TO.P,CJMCU_FT1,AC6,AC6*%
%TO.N,Net-(U1-GPIO5)*%
X131170000Y-66058000D03*
%TO.P,CJMCU_FT1,AC7,AC7*%
%TO.N,unconnected-(CJMCU_FT1-PadAC7)*%
X131170000Y-63518000D03*
%TO.P,CJMCU_FT1,AC8,AC8*%
%TO.N,unconnected-(CJMCU_FT1-PadAC8)*%
X131170000Y-60978000D03*
%TO.P,CJMCU_FT1,AC9,AC9*%
%TO.N,unconnected-(CJMCU_FT1-PadAC9)*%
X131170000Y-58438000D03*
%TO.P,CJMCU_FT1,AD0,AD0*%
%TO.N,Net-(U1-GPIO8)*%
X105770000Y-58438000D03*
%TO.P,CJMCU_FT1,AD1,AD1*%
%TO.N,unconnected-(CJMCU_FT1-PadAD1)*%
X105770000Y-60978000D03*
%TO.P,CJMCU_FT1,AD2,AD2*%
%TO.N,unconnected-(CJMCU_FT1-PadAD2)*%
X105770000Y-63518000D03*
%TO.P,CJMCU_FT1,AD3,AD3*%
%TO.N,unconnected-(CJMCU_FT1-PadAD3)*%
X105770000Y-66058000D03*
%TO.P,CJMCU_FT1,AD4,AD4*%
%TO.N,unconnected-(CJMCU_FT1-PadAD4)*%
X105770000Y-68598000D03*
%TO.P,CJMCU_FT1,AD5,AD5*%
%TO.N,unconnected-(CJMCU_FT1-PadAD5)*%
X105770000Y-71138000D03*
%TO.P,CJMCU_FT1,AD6,AD6*%
%TO.N,unconnected-(CJMCU_FT1-PadAD6)*%
X105770000Y-73678000D03*
%TO.P,CJMCU_FT1,AD7,AD7*%
%TO.N,unconnected-(CJMCU_FT1-PadAD7)*%
X105770000Y-76218000D03*
%TO.P,CJMCU_FT1,GND1,GND*%
%TO.N,unconnected-(CJMCU_FT1-GND-PadGND1)*%
X105770000Y-81298000D03*
%TO.P,CJMCU_FT1,GND2,GND*%
%TO.N,Net-(CJMCU_FT1-GND-PadGND2)*%
X114660000Y-87648000D03*
%TO.P,CJMCU_FT1,Vcore,Vcore*%
%TO.N,unconnected-(CJMCU_FT1-PadVcore)*%
X119740000Y-87648000D03*
%TD*%
D13*
%TO.N,Net-(U1-GPIO5)*%
X187500000Y-64500000D03*
X159500000Y-64500000D03*
%TO.N,Net-(U1-GPIO8)*%
X161500000Y-91500000D03*
X179500000Y-73770000D03*
%TO.N,Net-(CJMCU_FT1-GND-PadGND2)*%
X172500000Y-66150000D03*
X162000000Y-76500000D03*
%TO.N,Net-(U1-GPIO3)*%
X159500000Y-87000000D03*
%TO.N,Net-(U1-GPIO4)*%
X159500000Y-85000000D03*
%TO.N,Net-(U1-GPIO6)*%
X159500000Y-83000000D03*
%TO.N,Net-(U1-GPIO7)*%
X159500000Y-81000000D03*
X169250000Y-71250000D03*
%TO.N,Net-(U1-GPIO6)*%
X173750000Y-68750000D03*
%TO.N,Net-(U1-GPIO3)*%
X188000000Y-58530000D03*
%TO.N,Net-(U1-GPIO4)*%
X183500000Y-61070000D03*
%TO.N,Net-(U1-GPIO2)*%
X168000000Y-67500000D03*
X179500000Y-56000000D03*
%TD*%
D14*
%TO.N,Net-(CJMCU_FT1-GND-PadGND2)*%
X198560000Y-53500000D02*
X198610000Y-53450000D01*
X162500000Y-53500000D02*
X198560000Y-53500000D01*
X162000000Y-54000000D02*
X162500000Y-53500000D01*
X162000000Y-76500000D02*
X162000000Y-54000000D01*
%TO.N,Net-(U1-GPIO7)*%
X169250000Y-71250000D02*
X169270000Y-71230000D01*
%TO.N,Net-(U1-GPIO6)*%
X173750000Y-68750000D02*
X173810000Y-68690000D01*
%TO.N,Net-(U1-GPIO2)*%
X168000000Y-67500000D02*
X179500000Y-56000000D01*
X179500000Y-56000000D02*
X179510000Y-55990000D01*
X167902000Y-67598000D02*
X168000000Y-67500000D01*
%TO.N,Net-(U1-GPIO7)*%
X159500000Y-81000000D02*
X169250000Y-71250000D01*
%TO.N,Net-(U1-GPIO6)*%
X159500000Y-83000000D02*
X173750000Y-68750000D01*
%TO.N,Net-(U1-GPIO4)*%
X159500000Y-85000000D02*
X183430000Y-61070000D01*
%TO.N,Net-(U1-GPIO3)*%
X159500000Y-87000000D02*
X187970000Y-58530000D01*
%TD*%
M02*
