M48
; DRILL file {KiCad 9.0.2} date 2025-05-23T21:15:39+0530
; FORMAT={-:-/ absolute / metric / decimal}
; #@! TF.CreationDate,2025-05-23T21:15:39+05:30
; #@! TF.GenerationSoftware,Kicad,Pcbnew,9.0.2
; #@! TF.FileFunction,Plated,1,2,PTH
FMAT,2
METRIC
; #@! TA.AperFunction,Plated,PTH,ComponentDrill
T1C1.000
; #@! TA.AperFunction,Plated,PTH,ComponentDrill
T2C1.020
; #@! TA.AperFunction,Plated,PTH,ComponentDrill
T3C2.700
%
G90
G05
T1
X55.34Y-95.542
X57.88Y-95.542
X60.42Y-95.542
X60.42Y-159.062
X62.96Y-95.542
X62.96Y-159.062
X65.5Y-95.542
X65.5Y-159.062
X66.438Y-54.83
X66.438Y-80.23
X68.04Y-95.542
X68.04Y-159.062
X68.978Y-54.83
X68.978Y-80.23
X70.58Y-95.542
X70.58Y-159.062
X71.518Y-54.83
X71.518Y-80.23
X73.12Y-95.542
X74.058Y-54.83
X74.058Y-80.23
X75.66Y-95.542
X76.598Y-54.83
X76.598Y-80.23
X79.138Y-54.83
X79.138Y-80.23
X81.678Y-54.83
X81.678Y-80.23
X84.218Y-54.83
X84.218Y-80.23
X86.758Y-54.83
X86.758Y-80.23
X89.298Y-54.83
X89.298Y-80.23
X95.648Y-63.72
X95.648Y-66.26
X95.648Y-68.8
X95.648Y-71.34
T2
X128.11Y-107.37
X128.11Y-109.91
X128.11Y-112.45
X128.11Y-114.99
X128.11Y-117.53
X128.11Y-120.07
X128.11Y-122.61
X128.11Y-125.15
X128.11Y-127.69
X128.11Y-130.23
X128.11Y-132.77
X128.11Y-135.31
X128.11Y-137.85
X128.11Y-140.39
X128.11Y-142.93
X128.11Y-145.47
X128.11Y-148.01
X128.11Y-150.55
X128.11Y-153.09
X128.11Y-155.63
X134.46Y-155.4
X137.0Y-155.4
X139.54Y-155.4
X145.89Y-107.37
X145.89Y-109.91
X145.89Y-112.45
X145.89Y-114.99
X145.89Y-117.53
X145.89Y-120.07
X145.89Y-122.61
X145.89Y-125.15
X145.89Y-127.69
X145.89Y-130.23
X145.89Y-132.77
X145.89Y-135.31
X145.89Y-137.85
X145.89Y-140.39
X145.89Y-142.93
X145.89Y-145.47
X145.89Y-148.01
X145.89Y-150.55
X145.89Y-153.09
X145.89Y-155.63
X157.61Y-32.37
X157.61Y-34.91
X157.61Y-37.45
X157.61Y-39.99
X157.61Y-42.53
X157.61Y-45.07
X157.61Y-47.61
X157.61Y-50.15
X157.61Y-52.69
X157.61Y-55.23
X157.61Y-57.77
X157.61Y-60.31
X157.61Y-62.85
X157.61Y-65.39
X157.61Y-67.93
X157.61Y-70.47
X157.61Y-73.01
X157.61Y-75.55
X157.61Y-78.09
X157.61Y-80.63
X163.96Y-80.4
X166.5Y-80.4
X169.04Y-80.4
X170.11Y-107.37
X170.11Y-109.91
X170.11Y-112.45
X170.11Y-114.99
X170.11Y-117.53
X170.11Y-120.07
X170.11Y-122.61
X170.11Y-125.15
X170.11Y-127.69
X170.11Y-130.23
X170.11Y-132.77
X170.11Y-135.31
X170.11Y-137.85
X170.11Y-140.39
X170.11Y-142.93
X170.11Y-145.47
X170.11Y-148.01
X170.11Y-150.55
X170.11Y-153.09
X170.11Y-155.63
X175.39Y-32.37
X175.39Y-34.91
X175.39Y-37.45
X175.39Y-39.99
X175.39Y-42.53
X175.39Y-45.07
X175.39Y-47.61
X175.39Y-50.15
X175.39Y-52.69
X175.39Y-55.23
X175.39Y-57.77
X175.39Y-60.31
X175.39Y-62.85
X175.39Y-65.39
X175.39Y-67.93
X175.39Y-70.47
X175.39Y-73.01
X175.39Y-75.55
X175.39Y-78.09
X175.39Y-80.63
X176.46Y-155.4
X179.0Y-155.4
X181.54Y-155.4
X187.89Y-107.37
X187.89Y-109.91
X187.89Y-112.45
X187.89Y-114.99
X187.89Y-117.53
X187.89Y-120.07
X187.89Y-122.61
X187.89Y-125.15
X187.89Y-127.69
X187.89Y-130.23
X187.89Y-132.77
X187.89Y-135.31
X187.89Y-137.85
X187.89Y-140.39
X187.89Y-142.93
X187.89Y-145.47
X187.89Y-148.01
X187.89Y-150.55
X187.89Y-153.09
X187.89Y-155.63
T3
X48.45Y-97.042
X48.45Y-158.243
X82.55Y-97.042
X82.55Y-158.243
M30
