M48
; DRILL file {KiCad 9.0.2} date 2025-05-22T21:13:22+0530
; FORMAT={-:-/ absolute / metric / decimal}
; #@! TF.CreationDate,2025-05-22T21:13:22+05:30
; #@! TF.GenerationSoftware,Kicad,Pcbnew,9.0.2
; #@! TF.FileFunction,Plated,1,2,PTH
FMAT,2
METRIC
; #@! TA.AperFunction,Plated,PTH,ViaDrill
T1C0.300
; #@! TA.AperFunction,Plated,PTH,ComponentDrill
T2C1.000
; #@! TA.AperFunction,Plated,PTH,ComponentDrill
T3C1.020
%
G90
G05
T1
X159.5Y-64.5
X159.5Y-81.0
X159.5Y-83.0
X159.5Y-85.0
X159.5Y-87.0
X161.5Y-91.5
X162.0Y-76.5
X168.0Y-67.5
X169.25Y-71.25
X172.5Y-66.15
X173.75Y-68.75
X179.5Y-56.0
X179.5Y-73.77
X183.5Y-61.07
X187.5Y-64.5
X188.0Y-58.53
T2
X105.77Y-58.438
X105.77Y-60.978
X105.77Y-63.518
X105.77Y-66.058
X105.77Y-68.598
X105.77Y-71.138
X105.77Y-73.678
X105.77Y-76.218
X105.77Y-78.758
X105.77Y-81.298
X114.66Y-87.648
X117.2Y-87.648
X119.74Y-87.648
X122.28Y-87.648
X131.17Y-58.438
X131.17Y-60.978
X131.17Y-63.518
X131.17Y-66.058
X131.17Y-68.598
X131.17Y-71.138
X131.17Y-73.678
X131.17Y-76.218
X131.17Y-78.758
X131.17Y-81.298
T3
X198.61Y-48.37
X198.61Y-50.91
X198.61Y-53.45
X198.61Y-55.99
X198.61Y-58.53
X198.61Y-61.07
X198.61Y-63.61
X198.61Y-66.15
X198.61Y-68.69
X198.61Y-71.23
X198.61Y-73.77
X198.61Y-76.31
X198.61Y-78.85
X198.61Y-81.39
X198.61Y-83.93
X198.61Y-86.47
X198.61Y-89.01
X198.61Y-91.55
X198.61Y-94.09
X198.61Y-96.63
X204.96Y-96.4
X207.5Y-96.4
X210.04Y-96.4
X216.39Y-48.37
X216.39Y-50.91
X216.39Y-53.45
X216.39Y-55.99
X216.39Y-58.53
X216.39Y-61.07
X216.39Y-63.61
X216.39Y-66.15
X216.39Y-68.69
X216.39Y-71.23
X216.39Y-73.77
X216.39Y-76.31
X216.39Y-78.85
X216.39Y-81.39
X216.39Y-83.93
X216.39Y-86.47
X216.39Y-89.01
X216.39Y-91.55
X216.39Y-94.09
X216.39Y-96.63
M30
